# xmcd
#
# Track frame offsets:
#	150
#	13635
#	28718
#	44881
#	60024
#	74702
#	92207
#	106442
#	118382
#	135797
#
# Disc length: 2004 seconds
#
# Revision: 0
# Processed by: cddbd v1.5.2PL0 Copyright (c) Steve Scherf et al.
# Submitted via: audiograbber 1.83.01
#
DISCID=8b07d20a
DTITLE=John Conlee - Greatest Hits Vol. 2
DYEAR=1985
DGENRE=Country
TTITLE0=Lifetime Guarantee
TTITLE1=Years After You
TTITLE2=In My Eyes
TTITLE3=As Long As I'm Rockin' With You
TTITLE4=I'm Only In It For The Love
TTITLE5=The Old School
TTITLE6=Way Back
TTITLE7=Before My Time
TTITLE8=Working Man
TTITLE9=Blue Highway
EXTD=
EXTT0=
EXTT1=
EXTT2=
EXTT3=
EXTT4=
EXTT5=
EXTT6=
EXTT7=
EXTT8=
EXTT9=
PLAYORDER=
